# xmcd
#
# Track frame offsets:
#	150
#	18990
#	35942
#	50125
#	66757
#	84410
#	91347
#	103047
#	117472
#	146710
#	157622
#	167610
#
# Disc length: 2545 seconds
#
# Revision: 1
# Processed by: cddbd v1.4PL0 Copyright (c) Steve Scherf et al.
# Submitted via: audiograbber 1.80.04
#
DISCID=9d09ef0c
DTITLE=Lightnin' Hopkins - Straight Blues
DYEAR=1964
DGENRE=Blues
TTITLE0=Black Gal
TTITLE1=Baby Don't You Tear My Clothes
TTITLE2=Good Morning Little School Girl
TTITLE3=Coffee Blues
TTITLE4=I Like To Boogie
TTITLE5=Get It Straight
TTITLE6=I Don't Want To Do Nothing To You
TTITLE7=You Is One Black Rat
TTITLE8=Got Nowhere To Lay My Head
TTITLE9=Just Boogyin'
TTITLE10=Take Me Back
TTITLE11=I Was Down On Dowling Street
EXTD=
EXTT0=
EXTT1=
EXTT2=
EXTT3=
EXTT4=
EXTT5=
EXTT6=
EXTT7=
EXTT8=
EXTT9=
EXTT10=
EXTT11=
PLAYORDER=
